<?xml version="1.0" standalone="no"?><!DOCTYPE svg PUBLIC "-//W3C//DTD SVG 1.1//EN" "http://www.w3.org/Graphics/SVG/1.1/DTD/svg11.dtd"><svg t="1579508727960" class="icon" viewBox="0 0 1024 1024" version="1.1" xmlns="http://www.w3.org/2000/svg" p-id="4551" xmlns:xlink="http://www.w3.org/1999/xlink" width="200" height="200"><defs><style type="text/css"></style></defs><path d="M43.008 86.016c29.696-8.192 60.416 9.728 68.096 39.424l216.064 813.568c8.192 30.208-9.728 60.928-39.424 68.608-29.696 8.192-60.416-9.728-68.096-39.936L3.584 154.112c-7.68-29.696 9.728-59.904 39.424-68.096zM161.792 150.528c14.336-25.088 148.992-232.448 380.416-86.528 231.424 145.92 382.464 250.368 482.304 75.776 0 0-25.088 141.312-67.584 216.064-43.008 74.752-177.152 177.664-343.04 133.632-153.6-40.448-266.752 22.016-312.832 160.768-1.024 0.512-128.512-460.8-139.264-499.712z" p-id="4552"></path></svg>